# MagicaVoxel @ Ephtracy

# group
o 

# material
mtllib Katana.mtl
usemtl palette

# normals
vn -1 0 0
vn 1 0 0
vn 0 0 1
vn 0 0 -1
vn 0 -1 0
vn 0 1 0

# texcoords
vt 0.0410156 0.5
vt 0.958984 0.5
vt 0.966797 0.5
vt 0.974609 0.5

# verts
v 3.3 0.2 4.9
v 3.3 0.2 4.5
v 3.3 0.3 8
v 3.3 0.3 7.6
v 3.3 1.7 8
v 3.3 1.7 7.6
v 3.3 1.8 4.9
v 3.3 1.8 4.5
v 3.5 0.5 7.6
v 3.5 0.5 7.4
v 3.5 0.5 7.1
v 3.5 0.5 6.9
v 3.5 0.5 6.5
v 3.5 0.5 6.3
v 3.5 0.5 5.9
v 3.5 0.5 5.7
v 3.5 0.5 5.3
v 3.5 0.5 5.1
v 3.5 0.5 4.9
v 3.5 1.5 7.6
v 3.5 1.5 7.4
v 3.5 1.5 7.1
v 3.5 1.5 6.9
v 3.5 1.5 6.5
v 3.5 1.5 6.3
v 3.5 1.5 5.9
v 3.5 1.5 5.7
v 3.5 1.5 5.3
v 3.5 1.5 5.1
v 3.5 1.5 4.9
v 3.6 0.5 4.5
v 3.6 0.5 4
v 3.6 0.5 1.3
v 3.6 0.6 1.3
v 3.6 0.6 -1.9
v 3.6 0.7 -1.9
v 3.6 0.7 -3.5
v 3.6 0.8 -3.5
v 3.6 0.8 -5
v 3.6 0.9 -5
v 3.6 0.9 -6.5
v 3.6 1 -6.5
v 3.6 1 -7.2
v 3.6 1.1 -7.2
v 3.6 1.1 -7.4
v 3.6 1.2 -7.4
v 3.6 1.2 -7.6
v 3.6 1.3 -7.6
v 3.6 1.3 -7.8
v 3.6 1.4 -7.8
v 3.6 1.4 -8
v 3.6 1.5 4.5
v 3.6 1.5 4
v 3.6 1.5 1.3
v 3.6 1.5 -8
v 3.6 1.5 -8.1
v 3.6 1.6 1.3
v 3.6 1.6 -1.8
v 3.6 1.6 -8.1
v 3.6 1.6 -8.2
v 3.6 1.7 -1.8
v 3.6 1.7 -3.4
v 3.6 1.7 -8.2
v 3.6 1.7 -8.3
v 3.6 1.8 -3.4
v 3.6 1.8 -4.9
v 3.6 1.8 -8.3
v 3.6 1.8 -8.4
v 3.6 1.9 -4.9
v 3.6 1.9 -6.4
v 3.6 2 -6.4
v 3.6 2 -8.4
v 3.9 0.5 4.5
v 3.9 0.5 4
v 3.9 0.5 1.3
v 3.9 0.6 1.3
v 3.9 0.6 -1.9
v 3.9 0.7 -1.9
v 3.9 0.7 -3.5
v 3.9 0.8 -3.5
v 3.9 0.8 -5
v 3.9 0.9 -5
v 3.9 0.9 -6.5
v 3.9 1 -6.5
v 3.9 1 -7.2
v 3.9 1.1 -7.2
v 3.9 1.1 -7.4
v 3.9 1.2 -7.4
v 3.9 1.2 -7.6
v 3.9 1.3 -7.6
v 3.9 1.3 -7.8
v 3.9 1.4 -7.8
v 3.9 1.4 -8
v 3.9 1.5 4.5
v 3.9 1.5 4
v 3.9 1.5 1.3
v 3.9 1.5 -8
v 3.9 1.5 -8.1
v 3.9 1.6 1.3
v 3.9 1.6 -1.8
v 3.9 1.6 -8.1
v 3.9 1.6 -8.2
v 3.9 1.7 -1.8
v 3.9 1.7 -3.4
v 3.9 1.7 -8.2
v 3.9 1.7 -8.3
v 3.9 1.8 -3.4
v 3.9 1.8 -4.9
v 3.9 1.8 -8.3
v 3.9 1.8 -8.4
v 3.9 1.9 -4.9
v 3.9 1.9 -6.4
v 3.9 2 -6.4
v 3.9 2 -8.4
v 4 0.5 7.6
v 4 0.5 7.4
v 4 0.5 7.1
v 4 0.5 6.9
v 4 0.5 6.5
v 4 0.5 6.3
v 4 0.5 5.9
v 4 0.5 5.7
v 4 0.5 5.3
v 4 0.5 5.1
v 4 0.5 4.9
v 4 1.5 7.6
v 4 1.5 7.4
v 4 1.5 7.1
v 4 1.5 6.9
v 4 1.5 6.5
v 4 1.5 6.3
v 4 1.5 5.9
v 4 1.5 5.7
v 4 1.5 5.3
v 4 1.5 5.1
v 4 1.5 4.9
v 4.2 0.2 4.9
v 4.2 0.2 4.5
v 4.2 0.3 8
v 4.2 0.3 7.6
v 4.2 1.7 8
v 4.2 1.7 7.6
v 4.2 1.8 4.9
v 4.2 1.8 4.5
v 3.3 0.3 8
v 3.3 1.7 8
v 4.2 0.3 8
v 4.2 1.7 8
v 3.3 0.2 4.9
v 3.3 1.8 4.9
v 3.5 0.5 4.9
v 3.5 1.5 4.9
v 4 0.5 4.9
v 4 1.5 4.9
v 4.2 0.2 4.9
v 4.2 1.8 4.9
v 3.6 1.5 1.3
v 3.6 1.6 1.3
v 3.9 1.5 1.3
v 3.9 1.6 1.3
v 3.6 1.6 -1.8
v 3.6 1.7 -1.8
v 3.9 1.6 -1.8
v 3.9 1.7 -1.8
v 3.6 1.7 -3.4
v 3.6 1.8 -3.4
v 3.9 1.7 -3.4
v 3.9 1.8 -3.4
v 3.6 1.8 -4.9
v 3.6 1.9 -4.9
v 3.9 1.8 -4.9
v 3.9 1.9 -4.9
v 3.6 1.9 -6.4
v 3.6 2 -6.4
v 3.9 1.9 -6.4
v 3.9 2 -6.4
v 3.3 0.3 7.6
v 3.3 1.7 7.6
v 3.5 0.5 7.6
v 3.5 1.5 7.6
v 4 0.5 7.6
v 4 1.5 7.6
v 4.2 0.3 7.6
v 4.2 1.7 7.6
v 3.3 0.2 4.5
v 3.3 1.8 4.5
v 3.6 0.5 4.5
v 3.6 1.5 4.5
v 3.9 0.5 4.5
v 3.9 1.5 4.5
v 4.2 0.2 4.5
v 4.2 1.8 4.5
v 3.6 0.5 1.3
v 3.6 0.6 1.3
v 3.9 0.5 1.3
v 3.9 0.6 1.3
v 3.6 0.6 -1.9
v 3.6 0.7 -1.9
v 3.9 0.6 -1.9
v 3.9 0.7 -1.9
v 3.6 0.7 -3.5
v 3.6 0.8 -3.5
v 3.9 0.7 -3.5
v 3.9 0.8 -3.5
v 3.6 0.8 -5
v 3.6 0.9 -5
v 3.9 0.8 -5
v 3.9 0.9 -5
v 3.6 0.9 -6.5
v 3.6 1 -6.5
v 3.9 0.9 -6.5
v 3.9 1 -6.5
v 3.6 1 -7.2
v 3.6 1.1 -7.2
v 3.9 1 -7.2
v 3.9 1.1 -7.2
v 3.6 1.1 -7.4
v 3.6 1.2 -7.4
v 3.9 1.1 -7.4
v 3.9 1.2 -7.4
v 3.6 1.2 -7.6
v 3.6 1.3 -7.6
v 3.9 1.2 -7.6
v 3.9 1.3 -7.6
v 3.6 1.3 -7.8
v 3.6 1.4 -7.8
v 3.9 1.3 -7.8
v 3.9 1.4 -7.8
v 3.6 1.4 -8
v 3.6 1.5 -8
v 3.9 1.4 -8
v 3.9 1.5 -8
v 3.6 1.5 -8.1
v 3.6 1.6 -8.1
v 3.9 1.5 -8.1
v 3.9 1.6 -8.1
v 3.6 1.6 -8.2
v 3.6 1.7 -8.2
v 3.9 1.6 -8.2
v 3.9 1.7 -8.2
v 3.6 1.7 -8.3
v 3.6 1.8 -8.3
v 3.9 1.7 -8.3
v 3.9 1.8 -8.3
v 3.6 1.8 -8.4
v 3.6 2 -8.4
v 3.9 1.8 -8.4
v 3.9 2 -8.4
v 3.3 0.2 4.9
v 4.2 0.2 4.9
v 3.3 0.2 4.5
v 4.2 0.2 4.5
v 3.3 0.3 8
v 4.2 0.3 8
v 3.3 0.3 7.6
v 4.2 0.3 7.6
v 3.5 0.5 7.6
v 4 0.5 7.6
v 3.5 0.5 7.4
v 4 0.5 7.4
v 3.5 0.5 7.1
v 4 0.5 7.1
v 3.5 0.5 6.9
v 4 0.5 6.9
v 3.5 0.5 6.5
v 4 0.5 6.5
v 3.5 0.5 6.3
v 4 0.5 6.3
v 3.5 0.5 5.9
v 4 0.5 5.9
v 3.5 0.5 5.7
v 4 0.5 5.7
v 3.5 0.5 5.3
v 4 0.5 5.3
v 3.5 0.5 5.1
v 4 0.5 5.1
v 3.5 0.5 4.9
v 4 0.5 4.9
v 3.6 0.5 4.5
v 3.9 0.5 4.5
v 3.6 0.5 4
v 3.9 0.5 4
v 3.6 0.5 1.3
v 3.9 0.5 1.3
v 3.6 0.6 1.3
v 3.9 0.6 1.3
v 3.6 0.6 -1.9
v 3.9 0.6 -1.9
v 3.6 0.7 -1.9
v 3.9 0.7 -1.9
v 3.6 0.7 -3.5
v 3.9 0.7 -3.5
v 3.6 0.8 -3.5
v 3.9 0.8 -3.5
v 3.6 0.8 -5
v 3.9 0.8 -5
v 3.6 0.9 -5
v 3.9 0.9 -5
v 3.6 0.9 -6.5
v 3.9 0.9 -6.5
v 3.6 1 -6.5
v 3.9 1 -6.5
v 3.6 1 -7.2
v 3.9 1 -7.2
v 3.6 1.1 -7.2
v 3.9 1.1 -7.2
v 3.6 1.1 -7.4
v 3.9 1.1 -7.4
v 3.6 1.2 -7.4
v 3.9 1.2 -7.4
v 3.6 1.2 -7.6
v 3.9 1.2 -7.6
v 3.6 1.3 -7.6
v 3.9 1.3 -7.6
v 3.6 1.3 -7.8
v 3.9 1.3 -7.8
v 3.6 1.4 -7.8
v 3.9 1.4 -7.8
v 3.6 1.4 -8
v 3.9 1.4 -8
v 3.6 1.5 -8
v 3.9 1.5 -8
v 3.6 1.5 -8.1
v 3.9 1.5 -8.1
v 3.6 1.6 -8.1
v 3.9 1.6 -8.1
v 3.6 1.6 -8.2
v 3.9 1.6 -8.2
v 3.6 1.7 -8.2
v 3.9 1.7 -8.2
v 3.6 1.7 -8.3
v 3.9 1.7 -8.3
v 3.6 1.8 -8.3
v 3.9 1.8 -8.3
v 3.6 1.8 -8.4
v 3.9 1.8 -8.4
v 3.5 1.5 7.6
v 4 1.5 7.6
v 3.5 1.5 7.4
v 4 1.5 7.4
v 3.5 1.5 7.1
v 4 1.5 7.1
v 3.5 1.5 6.9
v 4 1.5 6.9
v 3.5 1.5 6.5
v 4 1.5 6.5
v 3.5 1.5 6.3
v 4 1.5 6.3
v 3.5 1.5 5.9
v 4 1.5 5.9
v 3.5 1.5 5.7
v 4 1.5 5.7
v 3.5 1.5 5.3
v 4 1.5 5.3
v 3.5 1.5 5.1
v 4 1.5 5.1
v 3.5 1.5 4.9
v 4 1.5 4.9
v 3.6 1.5 4.5
v 3.9 1.5 4.5
v 3.6 1.5 4
v 3.9 1.5 4
v 3.6 1.5 1.3
v 3.9 1.5 1.3
v 3.6 1.6 1.3
v 3.9 1.6 1.3
v 3.6 1.6 -1.8
v 3.9 1.6 -1.8
v 3.3 1.7 8
v 4.2 1.7 8
v 3.3 1.7 7.6
v 4.2 1.7 7.6
v 3.6 1.7 -1.8
v 3.9 1.7 -1.8
v 3.6 1.7 -3.4
v 3.9 1.7 -3.4
v 3.3 1.8 4.9
v 4.2 1.8 4.9
v 3.3 1.8 4.5
v 4.2 1.8 4.5
v 3.6 1.8 -3.4
v 3.9 1.8 -3.4
v 3.6 1.8 -4.9
v 3.9 1.8 -4.9
v 3.6 1.9 -4.9
v 3.9 1.9 -4.9
v 3.6 1.9 -6.4
v 3.9 1.9 -6.4
v 3.6 2 -6.4
v 3.9 2 -6.4
v 3.6 2 -8.4
v 3.9 2 -8.4

# faces
f 5/1/1 4/1/1 3/1/1
f 6/1/1 4/1/1 5/1/1
f 7/1/1 2/1/1 1/1/1
f 8/1/1 2/1/1 7/1/1
f 20/3/1 10/3/1 9/3/1
f 21/2/1 11/2/1 10/2/1
f 21/3/1 10/3/1 20/3/1
f 22/3/1 12/3/1 11/3/1
f 22/2/1 11/2/1 21/2/1
f 23/2/1 13/2/1 12/2/1
f 23/3/1 12/3/1 22/3/1
f 24/3/1 14/3/1 13/3/1
f 24/2/1 13/2/1 23/2/1
f 25/2/1 15/2/1 14/2/1
f 25/3/1 14/3/1 24/3/1
f 26/3/1 16/3/1 15/3/1
f 26/2/1 15/2/1 25/2/1
f 27/2/1 17/2/1 16/2/1
f 27/3/1 16/3/1 26/3/1
f 28/3/1 18/3/1 17/3/1
f 28/2/1 17/2/1 27/2/1
f 29/2/1 19/2/1 18/2/1
f 29/3/1 18/3/1 28/3/1
f 30/2/1 19/2/1 29/2/1
f 34/4/1 33/4/1 32/4/1
f 36/4/1 35/4/1 34/4/1
f 38/4/1 37/4/1 36/4/1
f 40/4/1 39/4/1 38/4/1
f 42/4/1 41/4/1 40/4/1
f 44/4/1 43/4/1 42/4/1
f 46/4/1 45/4/1 44/4/1
f 48/4/1 47/4/1 46/4/1
f 50/4/1 49/4/1 48/4/1
f 52/1/1 32/1/1 31/1/1
f 53/4/1 51/4/1 50/4/1
f 53/1/1 32/1/1 52/1/1
f 53/4/1 34/4/1 32/4/1
f 53/4/1 50/4/1 48/4/1
f 53/4/1 48/4/1 46/4/1
f 53/4/1 46/4/1 44/4/1
f 53/4/1 44/4/1 42/4/1
f 53/4/1 42/4/1 40/4/1
f 53/4/1 40/4/1 38/4/1
f 53/4/1 38/4/1 36/4/1
f 53/4/1 36/4/1 34/4/1
f 54/4/1 51/4/1 53/4/1
f 55/4/1 51/4/1 54/4/1
f 57/4/1 56/4/1 55/4/1
f 57/4/1 55/4/1 54/4/1
f 58/4/1 56/4/1 57/4/1
f 59/4/1 56/4/1 58/4/1
f 61/4/1 60/4/1 59/4/1
f 61/4/1 59/4/1 58/4/1
f 62/4/1 60/4/1 61/4/1
f 63/4/1 60/4/1 62/4/1
f 65/4/1 64/4/1 63/4/1
f 65/4/1 63/4/1 62/4/1
f 66/4/1 64/4/1 65/4/1
f 67/4/1 64/4/1 66/4/1
f 69/4/1 68/4/1 67/4/1
f 69/4/1 67/4/1 66/4/1
f 70/4/1 68/4/1 69/4/1
f 71/4/1 68/4/1 70/4/1
f 72/4/1 68/4/1 71/4/1
f 74/4/2 75/4/2 76/4/2
f 76/4/2 77/4/2 78/4/2
f 78/4/2 79/4/2 80/4/2
f 80/4/2 81/4/2 82/4/2
f 82/4/2 83/4/2 84/4/2
f 84/4/2 85/4/2 86/4/2
f 86/4/2 87/4/2 88/4/2
f 88/4/2 89/4/2 90/4/2
f 90/4/2 91/4/2 92/4/2
f 73/1/2 74/1/2 94/1/2
f 92/4/2 93/4/2 95/4/2
f 94/1/2 74/1/2 95/1/2
f 74/4/2 76/4/2 95/4/2
f 90/4/2 92/4/2 95/4/2
f 88/4/2 90/4/2 95/4/2
f 86/4/2 88/4/2 95/4/2
f 84/4/2 86/4/2 95/4/2
f 82/4/2 84/4/2 95/4/2
f 80/4/2 82/4/2 95/4/2
f 78/4/2 80/4/2 95/4/2
f 76/4/2 78/4/2 95/4/2
f 95/4/2 93/4/2 96/4/2
f 96/4/2 93/4/2 97/4/2
f 97/4/2 98/4/2 99/4/2
f 96/4/2 97/4/2 99/4/2
f 99/4/2 98/4/2 100/4/2
f 100/4/2 98/4/2 101/4/2
f 101/4/2 102/4/2 103/4/2
f 100/4/2 101/4/2 103/4/2
f 103/4/2 102/4/2 104/4/2
f 104/4/2 102/4/2 105/4/2
f 105/4/2 106/4/2 107/4/2
f 104/4/2 105/4/2 107/4/2
f 107/4/2 106/4/2 108/4/2
f 108/4/2 106/4/2 109/4/2
f 109/4/2 110/4/2 111/4/2
f 108/4/2 109/4/2 111/4/2
f 111/4/2 110/4/2 112/4/2
f 112/4/2 110/4/2 113/4/2
f 113/4/2 110/4/2 114/4/2
f 115/3/2 116/3/2 126/3/2
f 116/2/2 117/2/2 127/2/2
f 126/3/2 116/3/2 127/3/2
f 117/3/2 118/3/2 128/3/2
f 127/2/2 117/2/2 128/2/2
f 118/2/2 119/2/2 129/2/2
f 128/3/2 118/3/2 129/3/2
f 119/3/2 120/3/2 130/3/2
f 129/2/2 119/2/2 130/2/2
f 120/2/2 121/2/2 131/2/2
f 130/3/2 120/3/2 131/3/2
f 121/3/2 122/3/2 132/3/2
f 131/2/2 121/2/2 132/2/2
f 122/2/2 123/2/2 133/2/2
f 132/3/2 122/3/2 133/3/2
f 123/3/2 124/3/2 134/3/2
f 133/2/2 123/2/2 134/2/2
f 124/2/2 125/2/2 135/2/2
f 134/3/2 124/3/2 135/3/2
f 135/2/2 125/2/2 136/2/2
f 139/1/2 140/1/2 141/1/2
f 141/1/2 140/1/2 142/1/2
f 137/1/2 138/1/2 143/1/2
f 143/1/2 138/1/2 144/1/2
f 147/1/3 146/1/3 145/1/3
f 148/1/3 146/1/3 147/1/3
f 151/1/3 150/1/3 149/1/3
f 152/1/3 150/1/3 151/1/3
f 153/1/3 151/1/3 149/1/3
f 154/1/3 150/1/3 152/1/3
f 155/1/3 153/1/3 149/1/3
f 155/1/3 154/1/3 153/1/3
f 156/1/3 150/1/3 154/1/3
f 156/1/3 154/1/3 155/1/3
f 159/4/3 158/4/3 157/4/3
f 160/4/3 158/4/3 159/4/3
f 163/4/3 162/4/3 161/4/3
f 164/4/3 162/4/3 163/4/3
f 167/4/3 166/4/3 165/4/3
f 168/4/3 166/4/3 167/4/3
f 171/4/3 170/4/3 169/4/3
f 172/4/3 170/4/3 171/4/3
f 175/4/3 174/4/3 173/4/3
f 176/4/3 174/4/3 175/4/3
f 177/1/4 178/1/4 179/1/4
f 179/1/4 178/1/4 180/1/4
f 177/1/4 179/1/4 181/1/4
f 180/1/4 178/1/4 182/1/4
f 177/1/4 181/1/4 183/1/4
f 181/1/4 182/1/4 183/1/4
f 182/1/4 178/1/4 184/1/4
f 183/1/4 182/1/4 184/1/4
f 185/1/4 186/1/4 187/1/4
f 187/1/4 186/1/4 188/1/4
f 185/1/4 187/1/4 189/1/4
f 188/1/4 186/1/4 190/1/4
f 185/1/4 189/1/4 191/1/4
f 189/1/4 190/1/4 191/1/4
f 190/1/4 186/1/4 192/1/4
f 191/1/4 190/1/4 192/1/4
f 193/4/4 194/4/4 195/4/4
f 195/4/4 194/4/4 196/4/4
f 197/4/4 198/4/4 199/4/4
f 199/4/4 198/4/4 200/4/4
f 201/4/4 202/4/4 203/4/4
f 203/4/4 202/4/4 204/4/4
f 205/4/4 206/4/4 207/4/4
f 207/4/4 206/4/4 208/4/4
f 209/4/4 210/4/4 211/4/4
f 211/4/4 210/4/4 212/4/4
f 213/4/4 214/4/4 215/4/4
f 215/4/4 214/4/4 216/4/4
f 217/4/4 218/4/4 219/4/4
f 219/4/4 218/4/4 220/4/4
f 221/4/4 222/4/4 223/4/4
f 223/4/4 222/4/4 224/4/4
f 225/4/4 226/4/4 227/4/4
f 227/4/4 226/4/4 228/4/4
f 229/4/4 230/4/4 231/4/4
f 231/4/4 230/4/4 232/4/4
f 233/4/4 234/4/4 235/4/4
f 235/4/4 234/4/4 236/4/4
f 237/4/4 238/4/4 239/4/4
f 239/4/4 238/4/4 240/4/4
f 241/4/4 242/4/4 243/4/4
f 243/4/4 242/4/4 244/4/4
f 245/4/4 246/4/4 247/4/4
f 247/4/4 246/4/4 248/4/4
f 251/1/5 250/1/5 249/1/5
f 252/1/5 250/1/5 251/1/5
f 255/1/5 254/1/5 253/1/5
f 256/1/5 254/1/5 255/1/5
f 259/3/5 258/3/5 257/3/5
f 260/3/5 258/3/5 259/3/5
f 261/2/5 260/2/5 259/2/5
f 262/2/5 260/2/5 261/2/5
f 263/3/5 262/3/5 261/3/5
f 264/3/5 262/3/5 263/3/5
f 265/2/5 264/2/5 263/2/5
f 266/2/5 264/2/5 265/2/5
f 267/3/5 266/3/5 265/3/5
f 268/3/5 266/3/5 267/3/5
f 269/2/5 268/2/5 267/2/5
f 270/2/5 268/2/5 269/2/5
f 271/3/5 270/3/5 269/3/5
f 272/3/5 270/3/5 271/3/5
f 273/2/5 272/2/5 271/2/5
f 274/2/5 272/2/5 273/2/5
f 275/3/5 274/3/5 273/3/5
f 276/3/5 274/3/5 275/3/5
f 277/2/5 276/2/5 275/2/5
f 278/2/5 276/2/5 277/2/5
f 281/1/5 280/1/5 279/1/5
f 282/1/5 280/1/5 281/1/5
f 283/4/5 282/4/5 281/4/5
f 284/4/5 282/4/5 283/4/5
f 287/4/5 286/4/5 285/4/5
f 288/4/5 286/4/5 287/4/5
f 291/4/5 290/4/5 289/4/5
f 292/4/5 290/4/5 291/4/5
f 295/4/5 294/4/5 293/4/5
f 296/4/5 294/4/5 295/4/5
f 299/4/5 298/4/5 297/4/5
f 300/4/5 298/4/5 299/4/5
f 303/4/5 302/4/5 301/4/5
f 304/4/5 302/4/5 303/4/5
f 307/4/5 306/4/5 305/4/5
f 308/4/5 306/4/5 307/4/5
f 311/4/5 310/4/5 309/4/5
f 312/4/5 310/4/5 311/4/5
f 315/4/5 314/4/5 313/4/5
f 316/4/5 314/4/5 315/4/5
f 319/4/5 318/4/5 317/4/5
f 320/4/5 318/4/5 319/4/5
f 323/4/5 322/4/5 321/4/5
f 324/4/5 322/4/5 323/4/5
f 327/4/5 326/4/5 325/4/5
f 328/4/5 326/4/5 327/4/5
f 331/4/5 330/4/5 329/4/5
f 332/4/5 330/4/5 331/4/5
f 335/4/5 334/4/5 333/4/5
f 336/4/5 334/4/5 335/4/5
f 337/3/6 338/3/6 339/3/6
f 339/3/6 338/3/6 340/3/6
f 339/2/6 340/2/6 341/2/6
f 341/2/6 340/2/6 342/2/6
f 341/3/6 342/3/6 343/3/6
f 343/3/6 342/3/6 344/3/6
f 343/2/6 344/2/6 345/2/6
f 345/2/6 344/2/6 346/2/6
f 345/3/6 346/3/6 347/3/6
f 347/3/6 346/3/6 348/3/6
f 347/2/6 348/2/6 349/2/6
f 349/2/6 348/2/6 350/2/6
f 349/3/6 350/3/6 351/3/6
f 351/3/6 350/3/6 352/3/6
f 351/2/6 352/2/6 353/2/6
f 353/2/6 352/2/6 354/2/6
f 353/3/6 354/3/6 355/3/6
f 355/3/6 354/3/6 356/3/6
f 355/2/6 356/2/6 357/2/6
f 357/2/6 356/2/6 358/2/6
f 359/1/6 360/1/6 361/1/6
f 361/1/6 360/1/6 362/1/6
f 361/4/6 362/4/6 363/4/6
f 363/4/6 362/4/6 364/4/6
f 365/4/6 366/4/6 367/4/6
f 367/4/6 366/4/6 368/4/6
f 369/1/6 370/1/6 371/1/6
f 371/1/6 370/1/6 372/1/6
f 373/4/6 374/4/6 375/4/6
f 375/4/6 374/4/6 376/4/6
f 377/1/6 378/1/6 379/1/6
f 379/1/6 378/1/6 380/1/6
f 381/4/6 382/4/6 383/4/6
f 383/4/6 382/4/6 384/4/6
f 385/4/6 386/4/6 387/4/6
f 387/4/6 386/4/6 388/4/6
f 389/4/6 390/4/6 391/4/6
f 391/4/6 390/4/6 392/4/6
